<svg 
 xmlns="http://www.w3.org/2000/svg"
 xmlns:xlink="http://www.w3.org/1999/xlink"
 width="40px" height="34px">
<defs>
<filter id="Filter_0">
    <feFlood flood-color="rgb(156, 156, 156)" flood-opacity="1" result="floodOut" />
    <feComposite operator="atop" in="floodOut" in2="SourceGraphic" result="compOut" />
    <feBlend mode="normal" in="compOut" in2="SourceGraphic" />
</filter>

</defs>
<g filter="url(#Filter_0)">
<path fill-rule="evenodd"  fill="rgb(0, 0, 0)"
 d="M36.381,24.648 C34.683,26.770 32.451,28.544 29.878,29.824 C29.565,31.654 27.973,33.051 26.063,33.051 L13.818,33.051 C11.907,33.051 10.316,31.654 10.002,29.824 C7.429,28.544 5.197,26.770 3.500,24.648 C1.477,22.120 0.262,19.156 -0.015,16.077 C-0.112,14.989 0.252,13.904 0.985,13.099 C1.716,12.295 2.757,11.835 3.841,11.835 L36.040,11.835 C37.124,11.835 38.165,12.295 38.896,13.099 C39.629,13.904 39.993,14.990 39.895,16.077 C39.619,19.156 38.403,22.120 36.381,24.648 ZM12.177,27.679 C12.553,27.840 12.799,28.209 12.799,28.620 L12.799,29.163 C12.799,29.728 13.255,30.186 13.818,30.186 L26.063,30.186 C26.626,30.186 27.082,29.728 27.082,29.163 L27.082,28.620 C27.082,28.209 27.327,27.840 27.703,27.679 C31.243,26.154 34.075,23.620 35.673,20.524 L4.208,20.524 C5.806,23.620 8.638,26.154 12.177,27.679 ZM36.040,14.699 L3.841,14.699 C3.240,14.699 2.773,15.219 2.827,15.820 C2.883,16.445 2.986,17.059 3.132,17.659 L36.748,17.659 C36.895,17.059 36.998,16.445 37.054,15.820 C37.108,15.219 36.641,14.699 36.040,14.699 ZM21.468,8.983 L20.625,8.983 C20.176,8.983 19.777,8.689 19.650,8.257 C19.554,7.930 19.416,7.598 19.238,7.414 C19.159,7.334 18.919,7.088 18.244,7.088 C15.989,7.088 14.686,5.975 13.990,5.040 C13.279,4.086 12.851,2.811 12.842,1.619 C12.835,0.819 13.479,0.142 14.275,0.145 C15.060,0.150 15.694,0.789 15.694,1.578 C15.694,2.025 15.846,2.750 16.274,3.324 C16.725,3.929 17.369,4.223 18.244,4.223 C19.812,4.223 20.772,4.883 21.301,5.436 C21.933,6.097 22.275,6.972 22.458,7.717 C22.617,8.361 22.129,8.983 21.468,8.983 ZM11.406,8.983 L10.563,8.983 C10.114,8.983 9.715,8.689 9.588,8.257 C9.492,7.930 9.354,7.598 9.175,7.414 C9.097,7.334 8.857,7.088 8.182,7.088 C5.927,7.088 4.624,5.975 3.928,5.040 C3.217,4.086 2.789,2.811 2.780,1.619 C2.773,0.819 3.417,0.142 4.213,0.145 C4.998,0.150 5.632,0.789 5.632,1.578 C5.632,2.025 5.784,2.750 6.212,3.324 C6.663,3.929 7.307,4.223 8.182,4.223 C9.749,4.223 10.710,4.883 11.239,5.436 C11.871,6.097 12.213,6.972 12.396,7.717 C12.554,8.361 12.067,8.983 11.406,8.983 Z"/>
</g>
</svg>