<svg 
 xmlns="http://www.w3.org/2000/svg"
 xmlns:xlink="http://www.w3.org/1999/xlink"
 width="15px" height="15px">
<defs>
<filter id="Filter_0">
    <feFlood flood-color="rgb(24, 23, 23)" flood-opacity="1" result="floodOut" />
    <feComposite operator="atop" in="floodOut" in2="SourceGraphic" result="compOut" />
    <feBlend mode="normal" in="compOut" in2="SourceGraphic" />
</filter>

</defs>
<g filter="url(#Filter_0)">
<path fill-rule="evenodd"  fill="rgb(0, 0, 0)"
 d="M12.803,12.803 C11.387,14.220 9.503,15.000 7.500,15.000 C5.497,15.000 3.613,14.220 2.197,12.803 C0.780,11.387 0.000,9.503 0.000,7.500 C0.000,5.497 0.780,3.613 2.197,2.197 C3.613,0.780 5.497,-0.000 7.500,-0.000 C9.503,-0.000 11.387,0.780 12.803,2.197 C14.220,3.613 15.000,5.497 15.000,7.500 C15.000,9.503 14.220,11.387 12.803,12.803 ZM7.500,1.212 C4.033,1.212 1.212,4.033 1.212,7.500 C1.212,10.967 4.033,13.788 7.500,13.788 C10.967,13.788 13.788,10.967 13.788,7.500 C13.788,4.033 10.967,1.212 7.500,1.212 ZM9.568,10.174 C9.413,10.174 9.258,10.115 9.140,9.997 L7.072,7.928 C6.958,7.815 6.894,7.661 6.894,7.500 L6.894,3.364 C6.894,3.029 7.165,2.757 7.500,2.757 C7.835,2.757 8.106,3.029 8.106,3.364 L8.106,7.249 L9.997,9.140 C10.233,9.376 10.233,9.760 9.997,9.997 C9.878,10.115 9.723,10.174 9.568,10.174 Z"/>
</g>
</svg>