<svg 
 xmlns="http://www.w3.org/2000/svg"
 xmlns:xlink="http://www.w3.org/1999/xlink"
 width="40px" height="41px">
<defs>
<filter id="Filter_0">
    <feFlood flood-color="rgb(156, 156, 156)" flood-opacity="1" result="floodOut" />
    <feComposite operator="atop" in="floodOut" in2="SourceGraphic" result="compOut" />
    <feBlend mode="normal" in="compOut" in2="SourceGraphic" />
</filter>

</defs>
<g filter="url(#Filter_0)">
<path fill-rule="evenodd"  fill="rgb(0, 0, 0)"
 d="M34.120,34.197 C30.345,37.964 25.326,40.039 19.987,40.039 C14.648,40.039 9.629,37.964 5.854,34.197 C2.079,30.429 0.000,25.420 0.000,20.092 C0.000,14.764 2.079,9.754 5.854,5.987 C9.629,2.220 14.648,0.145 19.987,0.145 C25.326,0.145 30.345,2.220 34.120,5.987 C37.895,9.754 39.974,14.764 39.974,20.092 C39.974,25.420 37.895,30.429 34.120,34.197 ZM19.987,3.368 C10.747,3.368 3.230,10.870 3.230,20.092 C3.230,29.313 10.747,36.816 19.987,36.816 C29.227,36.816 36.744,29.313 36.744,20.092 C36.744,10.870 29.227,3.368 19.987,3.368 ZM25.499,27.204 C25.085,27.204 24.672,27.047 24.357,26.732 L18.845,21.231 C18.542,20.929 18.372,20.519 18.372,20.092 L18.372,9.091 C18.372,8.200 19.095,7.479 19.987,7.479 C20.879,7.479 21.602,8.200 21.602,9.091 L21.602,19.424 L26.640,24.453 C27.271,25.082 27.271,26.103 26.640,26.732 C26.325,27.047 25.912,27.204 25.499,27.204 Z"/>
</g>
</svg>